<?xml version="1.0" standalone="no"?>
<!DOCTYPE svg PUBLIC "-//W3C//DTD SVG 20010904//EN"
 "http://www.w3.org/TR/2001/REC-SVG-20010904/DTD/svg10.dtd">
<svg version="1.0" xmlns="http://www.w3.org/2000/svg"
 width="1024.000000pt" height="1024.000000pt" viewBox="0 0 1024.000000 1024.000000"
 preserveAspectRatio="xMidYMid meet">

<g transform="translate(0.000000,1024.000000) scale(0.100000,-0.100000)"
fill="#000000" stroke="none">
<path d="M5261 8124 c-22 -19 -44 -50 -50 -67 -7 -21 -9 -725 -8 -2062 l2
-2030 23 -38 c46 -72 121 -87 190 -37 23 16 46 39 52 50 8 14 11 610 11 2075
0 1895 -1 2056 -17 2079 -25 39 -76 66 -123 66 -33 0 -49 -7 -80 -36z"/>
<path d="M3247 8136 c-63 -23 -104 -62 -138 -131 -28 -56 -31 -72 -27 -127 5
-75 26 -122 76 -173 53 -53 94 -69 182 -68 l75 1 270 -269 269 -269 26 17 c14
8 35 25 47 36 l22 20 -42 51 c-23 28 -141 151 -261 274 -255 259 -251 247 -90
261 54 5 106 12 115 16 16 6 140 -120 338 -344 l91 -103 0 -73 0 -72 31 -7
c17 -3 47 -6 65 -6 l34 0 0 104 c0 90 -3 107 -22 132 -11 16 -103 112 -203
214 -100 102 -196 203 -213 225 l-32 39 -135 -3 c-106 -2 -136 0 -139 11 -2 7
-8 35 -15 62 -16 65 -62 130 -117 162 -55 32 -150 42 -207 20z m134 -131 c82
-43 92 -159 17 -205 -51 -31 -98 -26 -137 14 -61 63 -52 141 22 186 39 24 59
25 98 5z"/>
<path d="M4467 8135 c-52 -18 -83 -49 -103 -101 -29 -77 2 -184 63 -214 l30
-15 7 -260 c4 -143 9 -286 13 -317 l6 -58 59 0 60 0 -7 318 -6 317 32 15 c41
18 78 88 78 145 1 46 -27 112 -57 138 -23 21 -87 46 -117 46 -11 0 -37 -6 -58
-14z m102 -121 c18 -41 -2 -94 -36 -94 -57 0 -82 61 -43 100 29 29 64 26 79
-6z"/>
<path d="M7290 8141 c-99 -30 -165 -108 -178 -209 l-7 -57 -80 3 c-44 2 -108
1 -141 -3 l-62 -6 -133 -147 c-73 -81 -179 -193 -236 -250 -60 -59 -103 -111
-103 -122 0 -10 5 -53 11 -94 12 -81 17 -86 87 -86 l32 0 0 74 c0 67 3 77 31
112 17 22 43 51 57 65 15 14 90 94 167 177 l140 151 113 0 c83 1 121 -3 142
-14 17 -9 30 -18 30 -22 0 -7 -51 -61 -337 -356 -90 -92 -163 -174 -163 -181
0 -8 19 -31 42 -50 l42 -36 171 177 c93 98 214 222 267 276 l98 98 49 -7 c96
-13 205 47 254 140 31 58 30 174 0 232 -55 103 -191 166 -293 135z m104 -130
c34 -14 76 -78 76 -119 0 -69 -48 -122 -110 -122 -65 0 -110 53 -110 129 0 91
65 141 144 112z"/>
<path d="M6085 8126 c-69 -30 -102 -100 -93 -196 5 -52 46 -119 78 -127 16 -4
17 -21 13 -211 -3 -114 -2 -255 2 -314 l7 -108 64 0 65 0 -3 310 -3 310 27 9
c57 20 103 138 84 215 -9 36 -65 96 -103 112 -41 17 -99 17 -138 0z m113 -102
c31 -22 29 -68 -4 -99 -33 -31 -48 -31 -68 -3 -22 31 -20 74 4 98 24 24 38 25
68 4z"/>
<path d="M4878 7930 c-45 -13 -94 -48 -106 -75 -15 -33 -15 -100 -1 -128 6
-12 25 -36 41 -54 l30 -31 -3 -238 -4 -239 62 0 63 0 0 238 0 237 26 23 c35
30 64 89 64 130 0 80 -100 159 -172 137z m37 -135 c0 -23 -5 -31 -22 -33 -26
-4 -41 31 -22 54 20 24 44 13 44 -21z"/>
<path d="M5704 7916 c-17 -14 -38 -43 -48 -65 -26 -56 -15 -102 35 -152 l39
-39 0 -245 0 -245 66 0 67 0 -8 240 -7 239 27 13 c53 24 83 137 54 201 -32 71
-163 101 -225 53z m128 -71 c16 -35 -3 -75 -35 -75 -30 0 -47 18 -47 50 0 52
61 71 82 25z"/>
<path d="M7614 7516 c-43 -19 -93 -84 -101 -128 l-6 -38 -52 0 c-52 0 -54 -1
-89 -48 -19 -27 -110 -122 -201 -210 -91 -89 -165 -165 -165 -169 0 -5 17 -28
39 -53 l38 -44 205 202 c113 111 213 202 221 202 9 0 21 -9 27 -20 6 -11 34
-33 63 -50 99 -57 197 -31 246 64 69 134 -6 294 -141 303 -31 2 -66 -2 -84
-11z m116 -128 c28 -31 26 -72 -6 -97 -15 -12 -33 -21 -40 -21 -18 0 -54 49
-54 74 0 28 35 66 60 66 11 0 28 -10 40 -22z"/>
<path d="M2917 7499 c-49 -26 -94 -89 -102 -143 -14 -93 77 -210 170 -216 74
-5 94 1 154 45 l61 45 37 -43 c20 -23 110 -114 200 -202 l162 -161 48 53 48
52 -208 203 c-185 180 -214 204 -252 212 -35 7 -44 14 -48 35 -8 40 -61 106
-100 124 -47 23 -123 21 -170 -4z m136 -116 c27 -31 30 -66 7 -91 -26 -27 -59
-28 -87 -2 -37 33 -39 61 -9 87 32 27 67 30 89 6z"/>
<path d="M4165 6950 c-174 -25 -303 -123 -385 -295 -52 -110 -64 -168 -57
-284 9 -159 59 -278 164 -391 122 -132 186 -157 429 -166 160 -7 181 -10 223
-31 120 -64 152 -100 171 -199 15 -78 -4 -160 -56 -238 -64 -97 -29 -90 -524
-97 -239 -3 -436 -6 -437 -7 -1 -1 -9 -15 -17 -31 -8 -15 -38 -43 -65 -60 -27
-18 -71 -58 -97 -89 -96 -114 -240 -266 -269 -284 -47 -28 -80 -23 -110 16
-27 36 -87 66 -132 66 -38 0 -108 -36 -128 -66 -9 -14 -21 -49 -27 -78 -10
-47 -9 -57 12 -100 41 -86 139 -125 222 -88 50 22 76 49 87 88 7 28 10 29 82
35 92 7 98 9 132 63 15 24 69 84 120 132 l92 89 455 6 c274 4 481 12 520 19
121 22 220 89 297 201 78 114 91 140 114 224 39 144 12 338 -65 469 -32 54
-140 158 -194 185 -72 37 -149 49 -340 55 -173 4 -186 6 -226 30 -94 55 -150
150 -150 256 0 92 26 160 79 209 74 68 96 71 522 71 l373 0 0 145 0 145 -123
0 c-68 0 -238 2 -378 5 -140 2 -281 0 -314 -5z m-1109 -2246 c25 -38 9 -78
-33 -82 -36 -4 -63 26 -63 69 0 33 7 39 46 39 25 0 38 -7 50 -26z"/>
<path d="M5710 6811 l0 -149 373 -5 c256 -3 384 -8 411 -16 56 -18 141 -102
160 -159 47 -137 -16 -302 -138 -362 -37 -17 -74 -22 -242 -31 -110 -6 -244
-9 -299 -8 -55 2 -139 2 -187 1 l-88 -2 0 -57 0 -58 262 -250 c144 -137 374
-359 512 -492 138 -134 262 -250 276 -260 18 -13 56 -19 155 -24 71 -4 143
-12 158 -18 16 -6 89 -66 163 -133 134 -123 149 -132 234 -143 43 -6 46 -9 67
-56 17 -38 30 -53 57 -64 52 -22 116 -19 167 8 125 65 114 270 -18 329 -76 33
-139 13 -191 -62 -47 -68 -59 -62 -244 119 -198 194 -238 226 -352 280 -81 39
-100 55 -240 194 -83 84 -207 206 -274 272 -68 66 -128 128 -133 138 -9 16 -1
17 104 17 243 0 361 72 481 295 63 116 80 189 74 323 -4 103 -7 115 -45 194
-45 95 -146 211 -219 254 -108 63 -119 65 -570 69 l-414 5 0 -149z m2000
-2070 c24 -46 -1 -101 -46 -101 -41 0 -60 72 -28 104 21 22 61 20 74 -3z"/>
<path d="M7697 6656 c-20 -8 -45 -20 -53 -27 -28 -23 -64 -87 -64 -114 l0 -25
-194 0 -193 0 -7 -31 c-3 -17 -6 -49 -6 -71 l0 -39 215 7 215 7 20 -26 c42
-53 143 -62 212 -18 77 49 112 165 74 240 -22 41 -80 88 -123 100 -47 13 -49
13 -96 -3z m87 -127 c31 -25 33 -57 5 -93 -26 -32 -49 -33 -78 -2 -28 29 -22
77 12 101 27 19 29 19 61 -6z"/>
<path d="M2872 6639 c-64 -32 -95 -79 -100 -149 -3 -46 0 -69 17 -102 22 -45
81 -92 131 -103 41 -9 105 11 143 45 l33 29 197 -6 197 -6 0 34 c0 19 3 51 6
72 l7 37 -181 0 -182 0 -20 38 c-23 43 -43 67 -88 105 -42 34 -99 36 -160 6z
m132 -140 c22 -64 -27 -109 -83 -78 -32 18 -38 52 -16 85 13 21 23 25 53 22
29 -2 38 -8 46 -29z"/>
<path d="M4390 6443 c-80 -3 -98 -7 -117 -25 -30 -28 -29 -49 3 -87 l26 -31
131 6 c73 3 222 1 332 -4 110 -5 201 -8 202 -7 2 1 6 35 9 76 l6 74 -248 1
c-137 0 -292 -1 -344 -3z"/>
<path d="M5704 6395 c3 -27 6 -61 6 -74 l0 -24 340 5 339 5 20 24 c25 30 27
71 3 92 -15 14 -63 16 -366 19 l-348 3 6 -50z"/>
<path d="M2854 6106 c-42 -19 -64 -52 -64 -100 0 -83 65 -135 154 -123 32 4
49 15 77 46 l37 41 228 -1 c298 -1 322 -4 351 -48 44 -65 22 -6 -30 84 l-53
90 -279 0 c-197 1 -288 4 -308 13 -36 15 -74 15 -113 -2z"/>
<path d="M7111 6035 c-23 -33 -41 -62 -41 -65 0 -3 130 -3 290 -1 l289 3 34
-36 c31 -33 39 -36 90 -36 49 0 60 4 91 34 48 44 50 95 7 135 l-29 26 -345 0
-346 0 -40 -60z"/>
<path d="M2915 5721 c-50 -23 -99 -74 -120 -125 -22 -52 -13 -112 26 -166 43
-58 83 -80 150 -80 47 0 65 5 105 33 28 18 56 49 68 72 l21 40 641 0 c689 0
674 -1 674 51 0 12 -10 34 -22 48 l-23 25 -640 6 -640 7 -29 35 c-33 40 -96
73 -141 73 -16 0 -48 -9 -70 -19z m125 -142 c34 -63 -55 -142 -104 -93 -21 20
-20 73 1 96 24 26 89 25 103 -3z"/>
<path d="M7625 5713 c-41 -21 -85 -64 -85 -81 0 -12 -54 -13 -380 -7 -235 5
-380 4 -380 -2 0 -5 19 -38 43 -74 l43 -64 326 4 326 3 22 -43 c43 -84 82
-110 170 -112 47 -1 64 3 99 26 45 30 91 109 91 158 0 73 -61 167 -127 195
-43 18 -111 17 -148 -3z m133 -139 c29 -20 29 -67 0 -94 -45 -41 -108 -15
-108 46 0 58 57 84 108 48z"/>
<path d="M5741 5583 c-7 -25 -11 -250 -11 -630 l0 -592 -26 -20 c-89 -70 -81
-213 16 -279 29 -20 44 -23 88 -20 123 10 183 149 113 260 -16 26 -39 52 -50
58 -21 10 -21 17 -20 338 1 180 4 432 8 560 3 134 2 241 -3 250 -15 29 -87
112 -96 112 -5 0 -14 -17 -19 -37z m97 -1335 c17 -17 15 -64 -4 -82 -33 -34
-84 -6 -84 46 0 36 62 62 88 36z"/>
<path d="M6086 5284 c-8 -20 -6 -681 3 -879 l6 -150 -28 -29 c-84 -86 -89
-201 -13 -284 75 -83 212 -63 264 38 43 86 17 196 -58 246 -26 17 -40 35 -44
57 -4 18 -6 231 -6 474 2 436 1 443 -20 472 -22 32 -71 71 -88 71 -5 0 -13 -7
-16 -16z m130 -1180 c22 -33 10 -72 -28 -93 -24 -14 -28 -14 -46 3 -48 42 -30
116 28 116 21 0 35 -8 46 -26z"/>
<path d="M6353 5034 c-3 -9 -3 -64 0 -122 3 -59 1 -140 -4 -179 -7 -54 -7 -78
2 -95 7 -13 55 -68 108 -123 53 -55 129 -141 170 -190 41 -50 88 -102 105
-117 35 -33 76 -36 100 -9 29 32 12 73 -67 159 -40 42 -105 115 -144 162 -39
47 -88 101 -107 120 l-37 34 7 128 c6 112 5 133 -11 168 -27 61 -107 103 -122
64z"/>
<path d="M4941 4894 c-1 -6 -26 -31 -57 -55 l-56 -44 6 -217 6 -216 -39 -39
c-30 -30 -41 -50 -46 -85 -20 -136 97 -235 218 -184 113 47 128 218 24 285
l-37 24 -1 251 c0 138 -4 260 -9 271 -5 11 -9 15 -9 9z m7 -646 c17 -17 15
-58 -5 -80 -19 -22 -56 -24 -72 -4 -14 16 -18 67 -7 85 9 15 69 14 84 -1z"/>
<path d="M6703 4810 c-13 -15 -23 -33 -23 -39 0 -17 125 -145 253 -258 102
-91 207 -212 207 -240 0 -5 -9 -26 -20 -48 -56 -109 17 -278 144 -336 118 -53
267 13 327 145 24 54 24 148 0 201 -23 51 -98 118 -149 133 -50 15 -124 15
-156 1 -23 -11 -31 -5 -138 106 -62 65 -142 146 -178 181 -76 73 -218 184
-234 183 -6 0 -21 -13 -33 -29z m722 -582 c42 -33 58 -80 44 -129 -23 -77 -88
-106 -164 -75 -77 33 -86 159 -14 210 34 23 100 21 134 -6z"/>
<path d="M3697 4617 c-107 -105 -205 -207 -219 -225 -22 -30 -27 -32 -52 -22
-41 15 -126 12 -181 -7 -61 -20 -126 -84 -150 -146 -26 -69 -18 -161 21 -223
43 -70 127 -126 199 -132 92 -8 186 45 235 131 35 61 40 140 15 223 l-15 49
36 53 c33 51 161 184 331 345 l81 77 -31 24 c-75 55 -55 66 -270 -147z m-293
-406 c45 -41 58 -81 42 -128 -15 -43 -65 -83 -105 -83 -70 0 -143 96 -120 157
34 89 117 115 183 54z"/>
<path d="M4530 4762 c-27 -2 -50 -9 -57 -19 -10 -12 -13 -80 -13 -258 l0 -241
-30 -17 c-96 -57 -91 -248 9 -314 72 -48 183 -17 228 62 47 82 20 215 -50 252
l-28 14 3 254 c2 161 -1 257 -7 262 -5 4 -30 7 -55 5z m35 -646 c19 -28 12
-67 -15 -91 -26 -23 -68 -12 -80 20 -25 67 58 128 95 71z"/>
<path d="M4210 4701 l0 -50 -166 -163 c-91 -90 -173 -176 -181 -192 -16 -31
-13 -110 4 -127 19 -19 59 9 118 81 32 40 120 130 194 202 75 71 139 136 144
143 7 13 -14 122 -28 144 -3 6 -24 11 -46 11 l-39 0 0 -49z"/>
<path d="M6410 3355 c0 -12 -3 -36 -6 -53 l-6 -30 86 5 c48 3 86 2 86 -3 0 -5
-30 -45 -66 -89 -35 -44 -76 -94 -90 -112 -14 -18 -28 -50 -31 -73 l-6 -40
160 0 160 0 7 42 c9 53 1 58 -96 58 -43 0 -78 3 -78 7 0 4 33 49 73 101 90
119 96 129 97 170 l0 33 -97 -6 c-54 -4 -119 -2 -145 3 -46 9 -48 8 -48 -13z"/>
<path d="M2888 3350 c-41 -22 -78 -75 -78 -113 0 -28 39 -80 74 -99 11 -6 44
-17 71 -23 41 -9 51 -16 53 -35 2 -12 -2 -27 -10 -31 -20 -13 -70 -10 -102 6
-39 21 -48 19 -80 -14 l-28 -29 49 -23 c64 -29 159 -37 202 -15 36 19 71 70
71 104 0 57 -55 115 -123 127 -21 4 -47 15 -59 24 -19 16 -19 18 -3 34 20 21
47 22 85 2 28 -14 29 -14 59 23 l30 39 -52 21 c-64 27 -110 27 -159 2z"/>
<path d="M3630 3164 l0 -200 50 0 50 0 0 62 0 63 68 -1 c55 -1 75 3 98 20 69
48 81 129 28 192 -40 47 -61 54 -182 60 l-112 5 0 -201z m208 93 c6 -5 12 -25
12 -43 0 -28 -5 -36 -26 -44 -31 -12 -91 -13 -98 -1 -3 4 -3 31 1 58 l5 50 47
-5 c25 -2 52 -9 59 -15z"/>
<path d="M4060 3166 l0 -206 140 0 140 0 0 45 0 45 -96 0 -95 0 3 38 3 37 75
0 75 0 0 35 0 35 -75 5 -75 5 -3 39 -3 38 98 -4 98 -4 -4 43 -3 43 -123 0
c-68 0 -130 3 -139 6 -14 5 -16 -16 -16 -200z"/>
<path d="M4480 3163 l0 -203 45 0 45 0 0 71 0 70 32 -3 c29 -3 38 -11 72 -70
l38 -68 49 0 c27 0 49 3 49 8 0 4 -18 30 -40 57 -45 57 -49 75 -19 93 24 15
49 70 49 108 0 40 -29 92 -64 113 -25 15 -54 20 -144 23 l-112 3 0 -202z m220
92 c17 -21 4 -61 -22 -69 -13 -3 -43 -6 -68 -6 l-45 0 3 45 4 45 58 0 c39 0
62 -5 70 -15z"/>
<path d="M4926 3330 c-3 -19 -6 -109 -6 -200 l0 -166 45 -2 45 -2 0 59 c0 106
54 111 111 10 34 -62 34 -63 82 -65 28 -1 47 3 47 9 0 6 -18 37 -41 69 l-40
58 30 25 c64 54 62 136 -5 194 -41 37 -53 40 -171 43 l-91 3 -6 -35z m212 -72
c16 -16 15 -53 -1 -66 -7 -6 -39 -14 -70 -18 l-57 -7 0 52 0 51 58 0 c32 0 63
-5 70 -12z"/>
<path d="M7265 3318 c-3 -29 -5 -120 -3 -201 l3 -148 138 -2 137 -2 0 43 0 42
-72 0 c-105 0 -118 5 -118 46 l0 34 80 0 80 0 0 35 0 34 -77 3 c-75 3 -77 4
-84 32 -5 16 -6 33 -3 38 3 4 45 8 95 8 l89 0 0 45 0 45 -129 0 -130 0 -6 -52z"/>
<path d="M7660 3168 l0 -198 135 0 c74 0 138 0 143 0 4 0 8 20 10 46 l3 46
-60 -7 c-33 -4 -78 -4 -101 0 -38 6 -40 9 -40 41 l0 34 86 0 85 0 -3 37 c-3
32 -7 38 -28 38 -14 1 -51 2 -82 3 l-58 2 0 36 0 35 95 -3 95 -3 0 45 0 45
-140 0 -140 1 0 -198z"/>
<path d="M3227 3258 c0 -57 2 -147 2 -200 l1 -98 141 0 142 0 -7 31 c-3 17 -6
38 -6 45 0 11 -20 14 -90 14 l-90 0 0 35 0 34 78 3 77 3 0 35 0 35 -83 3 -83
3 3 37 3 37 98 3 c95 3 97 3 97 27 0 54 -2 55 -149 55 l-136 0 2 -102z"/>
<path d="M5541 3183 c1 -228 0 -223 55 -223 l44 0 0 65 c0 62 1 65 24 65 19 0
36 -15 71 -65 47 -65 47 -65 96 -65 27 0 49 3 49 6 0 3 -20 33 -45 66 l-45 60
34 39 c44 48 54 95 31 143 -32 67 -64 81 -197 84 l-118 4 1 -179z m217 75 c14
-14 16 -64 3 -72 -4 -3 -34 -8 -65 -12 l-56 -7 0 52 0 51 53 0 c29 0 58 -5 65
-12z"/>
<path d="M5998 3263 c-3 -54 -3 -141 0 -194 l5 -96 81 -7 c185 -14 196 -11
196 55 l0 29 -95 0 -95 0 0 40 0 40 80 0 80 0 0 35 0 35 -80 0 -80 0 0 30 c0
17 -1 33 -2 37 -2 4 39 6 90 4 l92 -3 0 46 0 46 -134 0 -133 0 -5 -97z"/>
<path d="M6925 3303 c-57 -123 -145 -329 -145 -340 0 -2 23 -3 52 -1 49 3 52
5 60 36 8 30 11 32 52 32 24 0 58 3 75 6 30 6 33 4 48 -35 16 -40 17 -41 65
-41 26 0 48 3 48 8 0 4 -28 68 -61 142 -34 74 -72 160 -85 190 -20 47 -27 55
-52 58 -28 3 -32 -2 -57 -55z m80 -143 c10 -22 16 -42 14 -44 -2 -2 -23 -7
-46 -11 -33 -5 -43 -4 -43 7 1 23 39 100 48 94 5 -3 17 -23 27 -46z"/>
</g>
</svg>
